<svg xmlns="http://www.w3.org/2000/svg" viewBox="0 0 40 40" fill="none" role="img" aria-label="Ecomdy">
  <rect width="40" height="40" rx="11" fill="#178BFF"/>
  <path d="M12.5 13.2h15.2c.66 0 1.2.54 1.2 1.2v1.35c0 .66-.54 1.2-1.2 1.2H16.1v2.55h9.35c.55 0 1 .45 1 1v1.15c0 .55-.45 1-1 1H16.1v2.7h11.6c.66 0 1.2.54 1.2 1.2v1.35c0 .66-.54 1.2-1.2 1.2H12.5c-.66 0-1.2-.54-1.2-1.2V14.4c0-.66.54-1.2 1.2-1.2Z" fill="#fff"/>
  <path d="M28.4 20.15c0-.55.45-1 1-1h1.35c.55 0 1 .45 1 1v9.05c0 .55-.45 1-1 1H29.4c-.55 0-1-.45-1-1v-9.05Z" fill="#fff" opacity=".92"/>
  <path d="M32.5 23.9c0-.55.45-1 1-1H35c.55 0 1 .45 1 1v5.3c0 .55-.45 1-1 1h-1.5c-.55 0-1-.45-1-1v-5.3Z" fill="#fff" opacity=".55"/>
</svg>
